<svg version="1.1" xmlns="http://www.w3.org/2000/svg" viewBox="1 0 512 512">
<path fill="#2563eb" d="
M429.696533,174.645966 
	C436.739441,148.951202 427.723877,125.024582 405.843079,112.086136 
	C393.541260,104.811859 380.142273,103.656075 366.248962,106.760101 
	C349.122253,110.586517 334.476807,119.358795 320.437012,129.376617 
	C286.440247,153.634415 258.835327,184.221725 233.764465,217.268967 
	C222.894226,231.597626 212.353088,246.176025 201.670990,260.647308 
	C180.702728,289.053345 146.108643,295.708801 115.172485,276.558594 
	C88.560669,260.085236 70.916046,235.990173 59.779602,207.086044 
	C50.290588,182.457809 48.784821,157.159805 55.756989,131.623825 
	C66.644196,91.748878 101.541565,61.682350 142.571442,56.851929 
	C173.342285,53.229301 201.221588,61.501274 226.909912,78.229385 
	C233.057465,82.232651 239.028107,86.472473 244.662262,91.161835 
	C249.078491,94.837494 249.167816,95.879593 245.033173,99.780212 
	C235.218018,109.039749 225.253357,118.148575 216.449158,128.406143 
	C214.219971,131.003326 212.646027,129.933746 210.678131,128.171173 
	C201.109436,119.600662 190.387146,112.947189 177.721222,110.192429 
	C138.411194,101.642769 102.299988,131.434097 103.079041,171.588959 
	C103.487061,192.617386 112.297821,209.926468 127.159821,224.201813 
	C138.928314,235.505798 153.946533,234.619629 164.315552,221.907578 
	C172.092072,212.373871 178.785797,201.964676 186.151794,192.087082 
	C212.030029,157.385025 240.372803,124.943253 274.458496,97.975746 
	C298.954163,78.595581 325.441528,62.747627 356.193665,55.330109 
	C383.043152,48.853928 409.452209,49.838898 434.622192,62.117203 
	C462.369934,75.652916 477.458984,98.414650 478.736389,129.010651 
	C479.533264,148.096756 472.414795,165.509323 460.987854,181.001480 
	C447.043579,199.906433 428.362305,212.082458 406.518494,219.847794 
	C405.013489,220.382797 403.485291,221.267197 400.421143,220.356842 
	C413.297729,206.857437 424.210999,192.631927 429.696533,174.645966 
z"/>
<path fill="#2563eb" d="
M429.064697,265.955383 
	C450.815491,293.129150 463.594543,323.382416 462.089905,358.242462 
	C460.069824,405.044373 428.987244,447.073547 380.324402,457.268341 
	C351.752136,463.254150 324.757507,457.498657 299.289429,443.777863 
	C288.990662,438.229492 279.609497,431.322327 270.391724,424.156158 
	C266.686829,421.275879 266.738586,419.100281 270.176880,415.928528 
	C279.483032,407.343933 288.563049,398.498535 296.753479,388.821472 
	C299.778503,385.247406 302.042969,385.713348 305.343445,388.619019 
	C318.242615,399.975311 333.014709,406.801910 350.606018,406.723938 
	C380.408447,406.591858 405.855225,384.349487 409.659485,354.744476 
	C413.019470,328.597656 403.206055,307.437958 384.203979,290.214630 
	C373.963074,280.932343 360.240295,282.122253 351.386292,292.489471 
	C338.835815,307.184937 328.962952,323.868958 317.018738,339.040375 
	C287.602295,376.404999 255.293701,410.730255 215.026276,436.678864 
	C193.394379,450.618622 170.089661,460.983978 144.298218,463.812531 
	C114.755005,467.052521 86.936157,461.895233 64.113647,441.274231 
	C41.941681,421.241058 35.765045,395.700806 43.430786,367.516632 
	C53.437256,330.726471 80.166504,310.125519 114.839478,298.225800 
	C115.256836,298.082550 115.780701,298.249603 116.556091,298.285919 
	C116.548187,300.911316 114.430023,301.978424 113.061035,303.403351 
	C100.838928,316.125244 92.015106,330.735504 87.276337,347.852905 
	C79.583466,375.641205 98.726746,409.371429 133.014313,410.958710 
	C150.558624,411.770905 165.698486,405.757355 180.141907,397.070068 
	C212.874115,377.382721 238.734802,350.151917 263.099182,321.238403 
	C281.272217,299.672302 296.259521,275.768677 313.494141,253.537415 
	C333.850037,227.279953 367.664551,221.236801 396.315186,237.945679 
	C408.853821,245.258118 419.531738,254.638367 429.064697,265.955383 
z"/>
<path fill="#2563eb" d="
M300.607300,229.457977 
	C294.698120,246.762024 284.712158,261.310974 274.435608,275.684570 
	C259.304199,296.848511 243.280090,317.290466 224.394287,335.281525 
	C206.620239,352.213623 187.172180,366.488800 162.946350,373.068268 
	C148.110748,377.097443 133.449951,378.214050 118.964813,371.940735 
	C116.306427,370.789459 113.295258,369.900787 111.532928,366.481354 
	C115.542206,364.408783 119.492340,362.457977 123.358643,360.353241 
	C147.842896,347.024475 167.669983,328.174530 186.291016,307.767181 
	C211.839752,279.767639 232.670013,248.096924 256.331421,218.635986 
	C269.587280,202.131027 283.388794,186.116058 298.768311,171.524246 
	C299.729797,170.611969 300.737000,169.737488 301.798706,168.947128 
	C302.138062,168.694489 302.722046,168.770462 303.615967,168.629593 
	C309.868713,189.205124 308.179016,209.266556 300.607300,229.457977 
z"/>
</svg>